<?xml version="1.0" encoding="utf-8"?>
<!-- Generator: Adobe Illustrator 19.2.1, SVG Export Plug-In . SVG Version: 6.00 Build 0)  -->
<svg version="1.1" id="Layer_1" xmlns="http://www.w3.org/2000/svg" xmlns:xlink="http://www.w3.org/1999/xlink" x="0px" y="0px"
	 viewBox="0 0 443 150" style="enable-background:new 0 0 443 150;" xml:space="preserve">
<style type="text/css">
	.st0{fill:#BCBEC0;}
</style>
<g>
	<path class="st0" d="M1.3,150v-48.9c0-27.4,22.3-49.6,49.6-49.6h341.2c27.4,0,49.6,22.3,49.6,49.6V150h1.3v-48.9
		c0-28.1-22.8-50.9-50.9-50.9H50.9C22.8,50.2,0,73.1,0,101.1V150H1.3z"/>
	<path class="st0" d="M247.4,109c2.9,0,5.2-2.3,5.2-5.2v-0.2c0-2.9-2.3-5.2-5.2-5.2h-51.8c-2.9,0-5.2,2.3-5.2,5.2v0.2
		c0,2.9,2.3,5.2,5.2,5.2H247.4z M191.7,103.8v-0.2c0-2.2,1.8-3.9,3.9-3.9h51.8c2.2,0,3.9,1.8,3.9,3.9v0.2c0,2.2-1.8,3.9-3.9,3.9
		h-51.8C193.5,107.7,191.7,106,191.7,103.8z"/>
	<path class="st0" d="M392.1,57.1H50.9c-24.3,0-44.1,19.8-44.1,44.1V150h1.3v-48.9c0-23.6,19.2-42.8,42.8-42.8h341.2
		c23.6,0,42.8,19.2,42.8,42.8V150h1.3v-48.9C436.2,76.9,416.4,57.1,392.1,57.1z"/>
	<path class="st0" d="M170.5,103.8c0-5.5-4.4-10-9.9-10c-5.5,0-9.9,4.5-9.9,10c0,5.5,4.4,10,9.9,10
		C166.1,113.8,170.5,109.3,170.5,103.8z M152,103.8c0-4.8,3.9-8.7,8.6-8.7s8.6,3.9,8.6,8.7s-3.9,8.7-8.6,8.7
		C155.8,112.5,152,108.6,152,103.8z"/>
</g>
</svg>
