<?xml version="1.0" encoding="utf-8"?>
<!-- Generator: Adobe Illustrator 19.2.1, SVG Export Plug-In . SVG Version: 6.00 Build 0)  -->
<svg version="1.1" id="Layer_1" xmlns="http://www.w3.org/2000/svg" xmlns:xlink="http://www.w3.org/1999/xlink" x="0px" y="0px"
	 viewBox="0 0 443 150" style="enable-background:new 0 0 443 150;" xml:space="preserve">
<style type="text/css">
	.st0{fill:#BCBEC0;}
</style>
<g>
	<path class="st0" d="M50.9,135.8h341.2c24.3,0,44.1-19.8,44.1-44.1V0h-1.3v91.8c0,23.6-19.2,42.8-42.8,42.8H50.9
		c-23.6,0-42.8-19.2-42.8-42.8V0H6.9v91.8C6.9,116.1,26.6,135.8,50.9,135.8z"/>
	<path class="st0" d="M190.4,92c0,17.2,14,31.1,31.1,31.1c17.2,0,31.1-14,31.1-31.1s-14-31.1-31.1-31.1
		C204.4,60.8,190.4,74.8,190.4,92z M251.3,92c0,16.4-13.4,29.8-29.8,29.8c-16.4,0-29.8-13.4-29.8-29.8s13.4-29.8,29.8-29.8
		C238,62.2,251.3,75.5,251.3,92z"/>
	<path class="st0" d="M441.7,0v91.8c0,27.4-22.3,49.6-49.6,49.6H50.9c-27.4,0-49.6-22.3-49.6-49.6V0H0v91.8
		c0,28.1,22.8,50.9,50.9,50.9h341.2c28.1,0,50.9-22.8,50.9-50.9V0H441.7z"/>
</g>
</svg>
